<svg width="24" height="24" viewBox="0 0 24 24" fill="white" xmlns="http://www.w3.org/2000/svg"><path d="M10.0756 9.59961C9.47452 9.59961 9 10.1401 9 10.7996C9 11.4591 9.48506 11.9996 10.0756 11.9996C10.6766 11.9996 11.1511 11.4591 11.1511 10.7996C11.1617 10.1401 10.6766 9.59961 10.0756 9.59961ZM13.9244 9.59961C13.3234 9.59961 12.8489 10.1401 12.8489 10.7996C12.8489 11.4591 13.3339 11.9996 13.9244 11.9996C14.5255 11.9996 15 11.4591 15 10.7996C15 10.1401 14.5255 9.59961 13.9244 9.59961Z"></path><path d="M18.1257 3H5.87429C4.84114 3 4 3.828 4 4.854V17.022C4 18.048 4.84114 18.876 5.87429 18.876H16.2423L15.7577 17.211L16.928 18.282L18.0343 19.29L20 21V4.854C20 3.828 19.1589 3 18.1257 3ZM14.5966 14.754C14.5966 14.754 14.2674 14.367 13.9931 14.025C15.1909 13.692 15.648 12.954 15.648 12.954C15.2731 13.197 14.9166 13.368 14.5966 13.485C14.1394 13.674 13.7006 13.8 13.2709 13.872C12.3931 14.034 11.5886 13.989 10.9029 13.863C10.3817 13.764 9.93371 13.62 9.55886 13.476C9.34857 13.395 9.12 13.296 8.89143 13.17C8.864 13.152 8.83657 13.143 8.80914 13.125C8.79086 13.116 8.78171 13.107 8.77257 13.098C8.608 13.008 8.51657 12.945 8.51657 12.945C8.51657 12.945 8.95543 13.665 10.1166 14.007C9.84229 14.349 9.504 14.754 9.504 14.754C7.48343 14.691 6.71543 13.386 6.71543 13.386C6.71543 10.488 8.032 8.139 8.032 8.139C9.34857 7.167 10.6011 7.194 10.6011 7.194L10.6926 7.302C9.04686 7.77 8.288 8.481 8.288 8.481C8.288 8.481 8.48914 8.373 8.82743 8.22C9.80571 7.797 10.5829 7.68 10.9029 7.653C10.9577 7.644 11.0034 7.635 11.0583 7.635C11.616 7.563 12.2469 7.545 12.9051 7.617C13.7737 7.716 14.7063 7.968 15.6571 8.481C15.6571 8.481 14.9349 7.806 13.3806 7.338L13.5086 7.194C13.5086 7.194 14.7611 7.167 16.0777 8.139C16.0777 8.139 17.3943 10.488 17.3943 13.386C17.3943 13.386 16.6171 14.691 14.5966 14.754Z"></path></svg>
