<svg width="24" height="24" viewBox="0 0 24 24" fill="white" xmlns="http://www.w3.org/2000/svg"><path d="M19.1969 11.9442H17.9256C17.6623 11.9442 17.4489 12.1577 17.4489 12.421V18.2171C17.4489 18.5248 17.1985 18.7751 16.8908 18.7751H5.78253C5.47494 18.7751 5.22475 18.5248 5.22475 18.2171V7.10901C5.22475 6.8013 5.47494 6.55092 5.78253 6.55092H11.8755C12.1388 6.55092 12.3522 6.33747 12.3522 6.07419V4.8029C12.3522 4.53962 12.1388 4.32617 11.8755 4.32617H5.78253C4.24821 4.32617 3 5.57457 3 7.10901V18.2172C3 19.7516 4.24828 20.9999 5.78253 20.9999H16.8908C18.4252 20.9999 19.6735 19.7516 19.6735 18.2172V12.421C19.6736 12.1577 19.4602 11.9442 19.1969 11.9442Z"></path><path d="M20.523 3H15.4662C15.2029 3 14.9895 3.21345 14.9895 3.47673V4.74802C14.9895 5.0113 15.2029 5.22475 15.4662 5.22475H17.2018L10.6709 11.7555C10.4847 11.9417 10.4847 12.2435 10.6709 12.4298L11.5698 13.3287C11.6592 13.4182 11.7805 13.4684 11.907 13.4684C12.0334 13.4684 12.1547 13.4182 12.244 13.3287L18.7749 6.79784V8.53333C18.7749 8.79662 18.9884 9.01006 19.2517 9.01006H20.523C20.7862 9.01006 20.9997 8.79662 20.9997 8.53333V3.47673C20.9997 3.21345 20.7862 3 20.523 3Z"></path></svg>
