<svg width="24" height="24" viewBox="0 0 24 24" fill="white" xmlns="http://www.w3.org/2000/svg"><path d="M8.997 19.3639C8.997 19.9128 8.60625 20.1395 8.1735 19.9128L3.5025 17.4539C3.3615 17.3836 3.243 17.266 3.14625 17.1009C3.0495 16.9358 3 16.7715 3 16.6096V4.58214C3 4.13349 3.25575 3.93049 3.834 4.23381L8.967 6.93518C9.04125 7.01338 8.9865 6.47626 8.997 19.3639ZM9.63975 8.05285L15.0037 17.1901L9.63975 14.3837V8.05285ZM21 8.24321V19.3639C21 19.54 20.9535 19.6822 20.859 19.7912C20.7653 19.9002 20.6377 19.9547 20.4772 19.9547C20.3167 19.9547 20.1593 19.9089 20.0055 19.8172L15.576 17.4958L21 8.24321ZM20.97 6.97704C20.97 6.99837 20.1112 8.47385 18.3937 11.4027C16.6762 14.3316 15.6698 16.0472 15.375 16.5464L11.4578 9.85693L14.712 4.297C14.889 3.99053 15.252 3.93681 15.4957 4.06477L20.9303 6.91385C20.9565 6.92728 20.97 6.94861 20.97 6.97704Z"></path></svg>
