<svg width="282" height="60" viewBox="0 0 282 60" fill="none" xmlns="http://www.w3.org/2000/svg">
	<path d="M38.0375 25.6592H31.75V19.6013H51.2763V25.6592H45.0669V45.5306H38.0375V25.6592Z" fill="white"/>
	<path d="M75.6985 19.6013V45.5306H68.669V35.4598H61.3662V45.5306H54.4148V19.6013H61.3662V29.5177H68.669V19.6013H75.6985Z" fill="white"/>
	<path d="M90.8796 46.0322C86.8962 46.0322 84.0193 44.9646 82.249 42.8296C80.5046 40.6945 79.6324 37.3119 79.6324 32.6817C79.6324 28 80.5046 24.5659 82.249 22.3794C83.9933 20.1929 86.8702 19.0997 90.8796 19.0997C94.889 19.0997 97.7659 20.1929 99.5102 22.3794C101.255 24.5659 102.127 27.9871 102.127 32.6431C102.127 37.0933 101.268 40.4373 99.5493 42.6752C97.8309 44.9132 94.9411 46.0322 90.8796 46.0322ZM90.8796 40.09C91.895 40.09 92.689 39.8457 93.2618 39.3569C93.8606 38.8424 94.2902 38.0579 94.5505 37.0032C94.8109 35.9228 94.9411 34.4695 94.9411 32.6431C94.9411 29.9164 94.6416 27.9743 94.0428 26.8167C93.444 25.6334 92.3896 25.0418 90.8796 25.0418C89.3956 25.0418 88.3412 25.6334 87.7163 26.8167C87.1175 28 86.8181 29.955 86.8181 32.6817C86.8181 35.0997 87.0785 36.9389 87.5992 38.1994C88.1199 39.4598 89.2133 40.09 90.8796 40.09Z" fill="white"/>
	<path d="M106.167 19.6013H116.672C119.953 19.6013 122.413 20.3601 124.053 21.8778C125.719 23.3955 126.553 25.6334 126.553 28.5916C126.553 31.5498 125.485 34.0322 123.35 36.0386L126.201 45.5306H118.586L116.672 37.6978H113.119V45.5306H106.167V19.6013ZM116.789 31.8328C117.623 31.8328 118.26 31.5241 118.703 30.9068C119.172 30.2637 119.406 29.492 119.406 28.5916C119.406 27.717 119.146 26.9711 118.625 26.3537C118.13 25.7363 117.479 25.4276 116.672 25.4276H113.119V31.8328H116.789Z" fill="white"/>
	<path d="M138.465 46.0707C136.226 46.0707 133.675 45.6978 130.811 44.9518L129.405 44.6431L130.108 39.3955C133.545 39.8585 136.2 40.09 138.075 40.09C140.106 40.09 141.121 39.3955 141.121 38.0064C141.121 37.5177 140.887 37.1318 140.418 36.8489C139.976 36.5659 139.312 36.2572 138.426 35.9228C137.854 35.717 137.437 35.5498 137.177 35.4212C134.235 34.4437 132.139 33.3248 130.889 32.0643C129.666 30.8039 129.054 29.2219 129.054 27.3183C129.054 24.6174 129.887 22.5723 131.553 21.1833C133.219 19.7942 135.484 19.0997 138.348 19.0997C139.52 19.0997 140.626 19.1768 141.668 19.3312C142.735 19.4855 144.675 19.8199 147.487 20.3344L146.94 25.6592C143.555 25.2733 140.952 25.0804 139.129 25.0804C136.994 25.0804 135.927 25.6592 135.927 26.8167C135.927 27.2026 136.187 27.537 136.708 27.8199C137.229 28.0772 138.049 28.4116 139.168 28.8231C140.314 29.2347 141.056 29.5177 141.394 29.672C143.113 30.3666 144.441 31.0482 145.378 31.717C146.315 32.3601 146.992 33.1447 147.409 34.0707C147.825 34.9968 148.033 36.1672 148.033 37.582C148.033 39.3826 147.604 40.9261 146.745 42.2122C145.911 43.4727 144.766 44.4373 143.308 45.1061C141.876 45.7492 140.262 46.0707 138.465 46.0707Z" fill="white"/>
	<path d="M155.958 25.6592H149.671V19.6013H169.197V25.6592H162.987V45.5306H155.958V25.6592Z" fill="white"/>
	<path d="M184.159 42.2122H176.504L175.997 45.5306H168.967L174.005 19.6013H186.658L191.696 45.5306H184.666L184.159 42.2122ZM181.191 25.2347H179.472L177.676 36.2701H182.987L181.191 25.2347Z" fill="white"/>
	<path d="M194.798 19.6013H205.303C208.584 19.6013 211.044 20.3601 212.684 21.8778C214.351 23.3955 215.184 25.6334 215.184 28.5916C215.184 31.5498 214.116 34.0322 211.981 36.0386L214.832 45.5306H207.217L205.303 37.6978H201.75V45.5306H194.798V19.6013ZM205.421 31.8328C206.254 31.8328 206.891 31.5241 207.334 30.9068C207.803 30.2637 208.037 29.492 208.037 28.5916C208.037 27.717 207.777 26.9711 207.256 26.3537C206.761 25.7363 206.11 25.4276 205.303 25.4276H201.75V31.8328H205.421Z" fill="white"/>
	<path d="M223.575 25.6592H217.288V19.6013H236.814V25.6592H230.605V45.5306H223.575V25.6592Z" fill="white"/>
	<path d="M246.904 25.582V29.6334H255.261V35.4984H246.904V39.5498H257.605V45.5306H239.953V19.6013H257.605V25.582H246.904Z" fill="white"/>
	<path d="M261.615 19.6013H272.12C275.4 19.6013 277.861 20.3601 279.501 21.8778C281.167 23.3955 282 25.6334 282 28.5916C282 31.5498 280.933 34.0322 278.798 36.0386L281.649 45.5306H274.033L272.12 37.6978H268.566V45.5306H261.615V19.6013ZM272.237 31.8328C273.07 31.8328 273.708 31.5241 274.151 30.9068C274.619 30.2637 274.854 29.492 274.854 28.5916C274.854 27.717 274.593 26.9711 274.073 26.3537C273.578 25.7363 272.927 25.4276 272.12 25.4276H268.566V31.8328H272.237Z" fill="white"/>
	<path d="M0 34.1479L21.0884 0L12.6179 26.2379H22.4552L1.5621 60L9.95841 34.1479H0Z" fill="#28DBD1"/>
</svg>